<?xml version="1.0" standalone="no"?>
<!DOCTYPE svg PUBLIC "-//W3C//DTD SVG 20010904//EN"
 "http://www.w3.org/TR/2001/REC-SVG-20010904/DTD/svg10.dtd">
<svg version="1.0" xmlns="http://www.w3.org/2000/svg"
 width="512.000000pt" height="512.000000pt" viewBox="0 0 512.000000 512.000000"
 preserveAspectRatio="xMidYMid meet">

<g transform="translate(0.000000,512.000000) scale(0.100000,-0.100000)"
fill="#000000" stroke="none">
<path d="M4500 5107 c-87 -25 -526 -263 -785 -426 -133 -84 -360 -239 -453
-308 -122 -92 -194 -201 -222 -338 -18 -82 -33 -105 -72 -105 -21 0 -43 11
-69 35 -55 49 -76 46 -156 -23 -106 -92 -260 -257 -265 -285 -7 -37 17 -86 48
-97 48 -19 80 -3 149 73 36 40 87 91 115 115 l50 43 32 -17 c42 -22 131 -22
183 0 80 34 124 95 148 203 37 166 84 215 437 450 305 203 805 485 911 513 83
23 179 -22 220 -103 28 -54 23 -117 -25 -342 -98 -453 -230 -916 -367 -1291
-90 -247 -121 -286 -284 -364 -106 -51 -130 -72 -171 -150 -14 -26 -19 -56
-19 -115 0 -88 14 -126 67 -182 l31 -32 -74 -122 c-125 -210 -288 -426 -412
-548 l-56 -54 -103 7 c-134 9 -227 28 -370 77 -64 21 -128 39 -143 39 -59 0
-97 -85 -60 -137 25 -36 268 -119 405 -138 98 -13 96 -13 96 -52 0 -43 40 -83
84 -83 53 0 230 160 395 357 151 181 349 481 421 638 22 49 24 58 12 82 -7 15
-33 38 -57 52 -49 27 -77 77 -66 120 7 29 42 71 60 71 28 0 156 72 204 116
104 94 148 185 281 584 112 333 205 681 289 1072 58 271 64 353 30 443 -28 75
-104 156 -183 195 -74 37 -182 48 -256 27z"/>
<path d="M3973 4158 c-549 -433 -1015 -1009 -1323 -1633 -156 -318 -264 -616
-346 -960 -26 -104 -49 -199 -54 -210 -6 -17 -16 -7 -62 65 -101 154 -169 308
-209 470 -21 83 -24 118 -23 285 0 169 3 202 26 300 42 177 144 423 241 578
l24 39 46 -74 c53 -85 155 -188 187 -188 29 0 76 26 84 45 17 46 6 77 -48 136
-83 89 -120 163 -150 302 -10 43 -40 67 -86 67 -36 0 -43 -5 -84 -57 -66 -84
-193 -301 -248 -425 -113 -254 -157 -435 -165 -683 -6 -188 6 -291 52 -448 14
-48 25 -89 25 -92 0 -3 -70 -5 -155 -5 l-155 0 -14 34 c-8 19 -23 39 -34 45
-13 7 -109 11 -266 11 l-246 0 0 140 c0 136 1 142 25 165 l24 25 261 0 261 0
24 25 c38 37 37 88 -1 123 -25 22 -29 22 -287 22 -150 0 -278 -5 -299 -10 -59
-17 -120 -69 -150 -129 -27 -52 -28 -61 -28 -207 l0 -153 -203 -3 -203 -3 -66
-33 c-80 -39 -138 -101 -170 -181 -23 -55 -23 -63 -22 -406 1 -376 12 -503 60
-715 50 -224 87 -297 180 -359 98 -64 40 -62 1245 -59 l1094 3 49 23 c120 55
177 136 220 312 52 211 76 443 76 725 0 175 -6 201 -54 224 -26 12 -38 10
-135 -22 -173 -58 -355 -81 -444 -56 -44 12 -44 -2 0 199 214 986 760 1886
1535 2530 187 155 188 157 188 196 0 47 -37 84 -84 84 -27 0 -51 -13 -113 -62z
m-3391 -3000 c5 -474 7 -485 67 -580 17 -26 52 -63 78 -82 89 -66 90 -66 655
-66 307 0 516 4 527 10 10 5 24 23 31 40 l12 30 109 0 109 0 0 -75 c0 -79 16
-127 45 -139 35 -13 76 -6 100 19 23 22 25 32 25 115 0 74 3 90 15 90 24 0
108 46 131 72 41 44 66 108 71 184 4 55 10 74 20 74 8 0 28 13 44 29 26 26 29
36 29 90 0 55 2 61 23 65 75 16 186 39 211 44 l29 5 -7 -169 c-9 -204 -28
-358 -62 -507 -30 -130 -51 -173 -101 -207 l-37 -25 -1076 -3 -1076 -2 -45 23
c-58 30 -89 93 -124 252 -49 222 -56 312 -53 691 l3 349 24 34 c32 44 92 71
162 71 l57 0 4 -432z"/>
</g>
</svg>
